                    <svg width="114.46" height="48" viewBox="0 0 186 78" fill="none" xmlns="http://www.w3.org/2000/svg">
                        <path
                            d="M96.4721 72.8113L97.7763 65.2877H91.3067L90.0025 72.8113H88L90.3311 59.4245L90.4133 57.2453L92.7546 57.0377L91.6045 63.6274H98.0741L99.1832 57.2245L101.227 57.0377L98.4746 72.8113H96.4721Z"
                            fill="#619FBB" />
                        <path
                            d="M109.949 63.1604C109.826 63.105 109.675 63.0566 109.497 63.0151C109.326 62.9736 109.162 62.9425 109.005 62.9217C108.82 62.894 108.628 62.8767 108.429 62.8698C107.731 62.8698 107.122 62.9909 106.602 63.233C106.081 63.4752 105.64 63.8072 105.277 64.2292C104.914 64.6513 104.626 65.1425 104.414 65.7028C104.202 66.2632 104.058 66.8616 103.983 67.4981C103.908 68.1346 103.901 68.6915 103.962 69.1689C104.031 69.6393 104.147 70.0371 104.312 70.3623C104.483 70.6805 104.695 70.9192 104.948 71.0783C105.208 71.2374 105.492 71.317 105.801 71.317C106.157 71.317 106.485 71.2686 106.786 71.1717C107.088 71.0748 107.361 70.9469 107.608 70.7877C107.861 70.6286 108.091 70.4487 108.296 70.2481C108.508 70.0475 108.696 69.8434 108.861 69.6358L109.949 63.1604ZM108.317 72.8113L108.604 71.1302L107.423 72.3028C107.279 72.4204 107.136 72.5242 106.992 72.6142C106.855 72.6972 106.701 72.7664 106.53 72.8217C106.365 72.877 106.174 72.9186 105.955 72.9462C105.736 72.9739 105.475 72.9877 105.174 72.9877C104.613 72.9877 104.12 72.8459 103.695 72.5623C103.278 72.2717 102.935 71.8704 102.668 71.3585C102.408 70.8465 102.23 70.2412 102.134 69.5425C102.045 68.8437 102.049 68.0792 102.145 67.2491C102.234 66.4811 102.436 65.734 102.751 65.0075C103.072 64.2811 103.507 63.6377 104.055 63.0774C104.602 62.5101 105.267 62.0569 106.047 61.7179C106.834 61.3789 107.741 61.2094 108.768 61.2094C109.186 61.244 109.597 61.289 110.001 61.3443C110.35 61.3928 110.709 61.4516 111.079 61.5208C111.455 61.5899 111.784 61.6764 112.065 61.7802L110.504 70.9434L110.391 72.8113H108.317Z"
                            fill="#619FBB" />
                        <path
                            d="M117.616 71.1509C118.356 71.1509 118.982 71.0506 119.496 70.85C120.009 70.6425 120.437 70.3484 120.779 69.9679C121.122 69.5874 121.389 69.1308 121.58 68.5981C121.779 68.0654 121.926 67.4704 122.022 66.8132C122.104 66.2459 122.121 65.7305 122.073 65.267C122.025 64.8035 121.923 64.4057 121.765 64.0736C121.608 63.7346 121.399 63.4648 121.139 63.2642C120.885 63.0635 120.588 62.9355 120.245 62.8802C119.937 62.8318 119.643 62.8318 119.362 62.8802C119.088 62.9286 118.825 63.0151 118.571 63.1396C118.318 63.2642 118.072 63.4198 117.832 63.6066C117.599 63.7934 117.367 64.0009 117.134 64.2292L115.932 71.1509H117.616ZM114.731 78H112.862L115.758 61.3962L117.668 61.1887L117.349 63.0151L118.325 61.9462C118.462 61.8563 118.602 61.7698 118.746 61.6868C118.89 61.5969 119.044 61.5173 119.208 61.4481C119.379 61.3789 119.568 61.3236 119.773 61.2821C119.985 61.2406 120.225 61.2198 120.492 61.2198C121.067 61.2198 121.591 61.3478 122.063 61.6038C122.542 61.8597 122.936 62.2333 123.244 62.7245C123.559 63.2088 123.774 63.8072 123.891 64.5198C124.007 65.2255 124 66.0349 123.87 66.9481C123.747 67.7921 123.525 68.5739 123.203 69.2934C122.881 70.006 122.443 70.6252 121.888 71.1509C121.334 71.6698 120.656 72.078 119.855 72.3755C119.061 72.666 118.126 72.8113 117.052 72.8113H115.645L114.731 78Z"
                            fill="#619FBB" />
                        <path
                            d="M129.931 71.1509C130.671 71.1509 131.297 71.0506 131.811 70.85C132.324 70.6425 132.752 70.3484 133.094 69.9679C133.437 69.5874 133.704 69.1308 133.895 68.5981C134.094 68.0654 134.241 67.4704 134.337 66.8132C134.419 66.2459 134.436 65.7305 134.388 65.267C134.34 64.8035 134.238 64.4057 134.08 64.0736C133.923 63.7346 133.714 63.4648 133.454 63.2642C133.2 63.0635 132.903 62.9355 132.56 62.8802C132.252 62.8318 131.958 62.8318 131.677 62.8802C131.403 62.9286 131.14 63.0151 130.886 63.1396C130.633 63.2642 130.387 63.4198 130.147 63.6066C129.914 63.7934 129.682 64.0009 129.449 64.2292L128.247 71.1509H129.931ZM127.046 78H125.177L128.073 61.3962L129.983 61.1887L129.664 63.0151L130.64 61.9462C130.777 61.8563 130.917 61.7698 131.061 61.6868C131.205 61.5969 131.359 61.5173 131.523 61.4481C131.694 61.3789 131.883 61.3236 132.088 61.2821C132.3 61.2406 132.54 61.2198 132.807 61.2198C133.382 61.2198 133.906 61.3478 134.378 61.6038C134.857 61.8597 135.251 62.2333 135.559 62.7245C135.874 63.2088 136.09 63.8072 136.206 64.5198C136.322 65.2255 136.315 66.0349 136.185 66.9481C136.062 67.7921 135.84 68.5739 135.518 69.2934C135.196 70.006 134.758 70.6252 134.203 71.1509C133.649 71.6698 132.971 72.078 132.17 72.3755C131.376 72.666 130.441 72.8113 129.367 72.8113H127.96L127.046 78Z"
                            fill="#619FBB" />
                        <path
                            d="M142.986 69.034L147.073 61.3962L149.055 61.2198L142.76 72.9877C142.315 73.8179 141.918 74.534 141.569 75.1358C141.22 75.7447 140.874 76.2462 140.531 76.6406C140.189 77.0349 139.83 77.3255 139.453 77.5123C139.084 77.706 138.656 77.7994 138.17 77.7925C137.82 77.7855 137.488 77.7129 137.173 77.5745C136.865 77.4362 136.592 77.2425 136.352 76.9934L137.297 75.883C137.393 75.966 137.512 76.0387 137.656 76.1009C137.8 76.1701 137.954 76.2082 138.118 76.2151C138.372 76.222 138.594 76.177 138.786 76.0802C138.984 75.9903 139.183 75.8311 139.381 75.6028C139.587 75.3814 139.806 75.0805 140.039 74.7C140.278 74.3264 140.562 73.8594 140.891 73.2991L138.683 61.3962L140.46 61.2198C140.535 61.6072 140.61 62.0154 140.686 62.4443C140.754 62.8179 140.829 63.2365 140.911 63.7C141 64.1635 141.093 64.6409 141.189 65.1321C141.401 66.2736 141.644 67.5742 141.918 69.034L142.031 71.4415L142.986 69.034Z"
                            fill="#619FBB" />
                        <path
                            d="M158.932 72.8113H156.878L159.209 59.4245L159.281 57.2453H168.267L167.774 58.9057H161.15L161.007 60.8774L160.534 63.6274H166.079L165.812 65.1321H160.267L158.932 72.8113Z"
                            fill="#619FBB" />
                        <path
                            d="M170.717 68.9094C170.614 69.4421 170.556 69.8607 170.543 70.1651C170.529 70.4695 170.556 70.7047 170.625 70.8708C170.693 71.0299 170.799 71.1406 170.943 71.2028C171.087 71.2582 171.265 71.2997 171.477 71.3274C171.58 71.3412 171.693 71.3412 171.816 71.3274C171.939 71.3066 172.052 71.2824 172.155 71.2547C172.278 71.227 172.398 71.189 172.514 71.1406L173.007 72.3962C172.932 72.4723 172.836 72.545 172.72 72.6142C172.61 72.6833 172.473 72.7456 172.309 72.8009C172.151 72.8563 171.963 72.9013 171.744 72.9358C171.525 72.9704 171.272 72.9877 170.984 72.9877C170.409 72.9877 169.957 72.8597 169.629 72.6038C169.3 72.3409 169.064 72.0019 168.92 71.5868C168.776 71.1717 168.708 70.7082 168.715 70.1962C168.728 69.6843 168.787 69.1723 168.889 68.6604L170.697 58.283L170.861 56.2075L172.966 56L170.717 68.9094Z"
                            fill="#619FBB" />
                        <path
                            d="M179.931 69.034L184.018 61.3962L186 61.2198L179.705 72.9877C179.26 73.8179 178.863 74.534 178.514 75.1358C178.165 75.7447 177.819 76.2462 177.477 76.6406C177.134 77.0349 176.775 77.3255 176.398 77.5123C176.029 77.706 175.601 77.7994 175.115 77.7925C174.765 77.7855 174.433 77.7129 174.119 77.5745C173.81 77.4362 173.537 77.2425 173.297 76.9934L174.242 75.883C174.338 75.966 174.457 76.0387 174.601 76.1009C174.745 76.1701 174.899 76.2082 175.063 76.2151C175.317 76.222 175.539 76.177 175.731 76.0802C175.929 75.9903 176.128 75.8311 176.326 75.6028C176.532 75.3814 176.751 75.0805 176.984 74.7C177.223 74.3264 177.507 73.8594 177.836 73.2991L175.628 61.3962L177.405 61.2198C177.48 61.6072 177.555 62.0154 177.631 62.4443C177.699 62.8179 177.774 63.2365 177.857 63.7C177.946 64.1635 178.038 64.6409 178.134 65.1321C178.346 66.2736 178.589 67.5742 178.863 69.034L178.976 71.4415L179.931 69.034Z"
                            fill="#619FBB" />
                        <path
                            d="M89.4007 28.3114H134.774V33.3254H89.4007V28.3114ZM109.261 25.8804H115.314V47.7597H109.261V25.8804ZM110.211 16.764V20.2586H113.913V16.764H110.211ZM110.211 9.16703V12.611H113.913V9.16703H110.211ZM105.109 4.76078H119.216V24.7155H105.109V4.76078ZM110.011 0L115.414 0.911638C114.464 3.19073 113.513 5.57112 112.763 7.14117L108.811 6.17888C109.311 4.35561 109.861 1.77263 110.011 0ZM129.371 17.9795L133.173 17.0172C134.023 19.8028 134.874 23.4494 135.224 25.8298L131.222 26.944C130.972 24.4623 130.172 20.8157 129.371 17.9795ZM99.2057 17.3211L103.058 16.4601C103.808 19.2963 104.558 22.9935 104.859 25.4752L100.807 26.4882C100.606 23.9558 99.9061 20.208 99.2057 17.3211ZM91.0015 16.2069C90.7514 15.2953 90.001 13.0162 89.5008 11.8513C90.2011 11.6487 90.9015 10.9397 91.6018 9.82543C92.3022 8.8125 94.5033 4.81142 95.6039 0.911638L100.256 2.53233C98.5554 6.58406 95.9541 10.9397 93.7029 13.7252V13.8772C93.7029 13.8772 91.0015 15.2953 91.0015 16.2069ZM91.0015 16.2069L90.9015 12.8136L92.9025 11.4461L100.006 10.889C99.756 12.1045 99.6059 13.7759 99.5559 14.7382C93.2027 15.4979 91.8019 15.8017 91.0015 16.2069ZM90.8515 26.1843C90.6514 25.222 89.901 22.9429 89.3007 21.6767C90.3512 21.4741 91.3017 20.4612 92.5523 19.0431C93.803 17.625 98.0051 12.0032 100.406 6.68535L104.658 9.06574C101.557 14.4343 97.3047 19.9041 93.2527 23.7532V23.9052C93.2527 23.9052 90.8515 25.3233 90.8515 26.1843ZM90.8515 26.1843L90.7014 22.7403L92.7524 21.3729L103.058 20.208C102.858 21.3729 102.758 23.0948 102.758 24.0065C93.4028 25.2726 91.8019 25.6778 90.8515 26.1843ZM120.767 16.5108C120.517 15.4978 119.766 13.2188 119.216 12.0032C119.916 11.8513 120.617 11.041 121.317 9.97737C122.017 8.9138 124.218 4.81142 125.419 0.911638L130.222 2.32974C128.521 6.58406 125.819 11.0916 123.518 13.9785V14.0797C123.518 14.0797 120.767 15.5485 120.767 16.5108ZM120.767 16.5108L120.617 12.9149L122.718 11.5474L130.822 10.7877C130.572 12.0539 130.422 13.8772 130.372 14.8901C123.118 15.7004 121.617 16.1056 120.767 16.5108ZM121.117 26.4882C120.867 25.5259 120.116 23.1455 119.566 21.8793C120.617 21.6261 121.567 20.7144 122.818 19.2457C124.118 17.8276 128.421 12.3071 130.922 6.98923L135.274 9.47091C132.072 14.7382 127.77 20.2586 123.618 24.0065V24.1584C123.618 24.1584 121.117 25.5765 121.117 26.4882ZM121.117 26.4882L120.967 23.0442L123.168 21.6767L133.773 20.7651C133.523 21.9806 133.323 23.7532 133.323 24.6649C123.768 25.6778 122.117 26.0323 121.117 26.4882ZM102.507 34.7942L107.41 36.6681C103.908 41.0744 97.9551 44.7716 91.952 46.4429C91.1016 44.9235 89.3007 42.5938 88 41.4289C93.6529 40.3147 99.5059 37.7823 102.507 34.7942ZM117.815 38.0356L121.367 34.2371C125.719 36.4655 131.822 40.0108 134.874 42.4925L131.022 46.8481C128.221 44.3157 122.267 40.5173 117.815 38.0356Z"
                            fill="url(#paint0_linear_111_340)" />
                        <path
                            d="M157.385 9.47091H163.238V47.2026H157.385V9.47091ZM141.827 2.63362H171.393V8.05281H141.827V2.63362ZM139.276 21.7274H172.193V27.1972H139.276V21.7274ZM145.83 13.7759H151.482V23.1961C151.482 31.1983 150.582 40.6692 142.728 47.5571C141.777 46.291 139.626 44.3157 138.226 43.4548C145.079 37.5291 145.83 29.7802 145.83 23.0948V13.7759ZM178.996 2.07651L184.049 4.55819C181.698 6.48276 179.197 8.50863 177.346 9.77479L173.794 7.74893C175.495 6.22953 177.746 3.79849 178.996 2.07651ZM169.642 10.028L172.493 6.33082C176.345 7.59699 181.698 9.72414 184.549 11.3955L181.498 15.4472C178.946 13.8265 173.594 11.4461 169.642 10.028ZM179.547 24.361L184.699 26.8933C182.148 28.666 179.547 30.3879 177.546 31.5022L173.994 29.4257C175.795 28.0582 178.196 25.8804 179.547 24.361ZM169.992 31.3502L172.943 27.7543C176.795 29.0711 182.148 31.4009 184.899 33.1735L181.848 37.2252C179.247 35.4526 173.994 32.9203 169.992 31.3502ZM167.591 2.63362H173.043C173.444 10.3319 175.295 18.1315 181.198 18.5366C181.848 18.6379 182.248 17.2198 182.498 14.9407C183.449 16.1056 184.799 17.5744 185.9 18.2834C185.05 22.791 183.048 24.4116 179.947 23.8545C170.092 22.5377 168.391 12.7629 167.591 2.63362ZM168.341 21.7274H173.944C174.044 31.7048 175.245 41.8847 181.248 42.3912C181.848 42.4925 182.298 40.5173 182.548 37.681C183.549 38.9979 184.949 40.5679 186 41.277C185.2 46.5948 183.199 48.5701 179.897 47.861C169.792 46.5442 168.791 34.4903 168.341 21.7274ZM153.684 8.96444L158.036 13.6239C152.983 15.4472 146.98 16.6627 141.577 17.5237C141.277 16.3082 140.327 14.3836 139.526 13.1681C144.679 12.2058 149.982 10.6358 153.684 8.96444Z"
                            fill="url(#paint1_linear_111_340)" />
                        <g clip-path="url(#clip0_111_340)">
                            <path
                                d="M69.362 56.9239C56.978 67.4021 30.3016 77.0423 21.4707 54.4606C13.229 33.3845 28.1878 10.566 51.7429 2.39941C39.1271 28.0217 44.6553 57.5463 69.362 56.9239Z"
                                fill="url(#paint2_linear_111_340)" />
                            <path
                                d="M30.3522 40.9977C30.155 58.8897 53.1077 72.3526 65.8142 64.992C75.8605 52.9257 73.8907 38.4414 79.9974 30.1844C76.9107 29.5938 73.035 30.9718 71.3291 32.9376C61.2801 32.347 60.8883 40.213 54.3871 45.9136C46.2147 53.0827 35.9605 49.7655 30.3522 40.9977Z"
                                fill="url(#paint3_linear_111_340)" />
                            <path
                                d="M65.8168 64.992C50.9459 82.6712 19.9194 82.9664 5.95475 61.9329C-8.16447 40.6652 4.29147 13.7635 27.9132 0C21.0415 36.5713 39.0791 70.7804 65.8168 64.992Z"
                                fill="url(#paint4_linear_111_340)" />
                        </g>
                        <defs>
                            <linearGradient id="paint0_linear_111_340" x1="109.507" y1="41.8442" x2="149.612"
                                y2="-41.0796" gradientUnits="userSpaceOnUse">
                                <stop stop-color="#619FBB" />
                                <stop offset="1" stop-color="#B4E0F4" />
                            </linearGradient>
                            <linearGradient id="paint1_linear_111_340" x1="109.507" y1="41.8442" x2="149.612"
                                y2="-41.0796" gradientUnits="userSpaceOnUse">
                                <stop stop-color="#619FBB" />
                                <stop offset="1" stop-color="#B4E0F4" />
                            </linearGradient>
                            <linearGradient id="paint2_linear_111_340" x1="27.5" y1="63.5" x2="60.5651" y2="45.7596"
                                gradientUnits="userSpaceOnUse">
                                <stop stop-color="#619FBB" />
                                <stop offset="1" stop-color="#B4E0F4" />
                            </linearGradient>
                            <linearGradient id="paint3_linear_111_340" x1="41.2462" y1="62.3" x2="78.8961" y2="11.1369"
                                gradientUnits="userSpaceOnUse">
                                <stop stop-color="#619FBB" />
                                <stop offset="1" stop-color="#B4E0F4" />
                            </linearGradient>
                            <linearGradient id="paint4_linear_111_340" x1="14.444" y1="67.9953" x2="96.5614"
                                y2="-2.17831" gradientUnits="userSpaceOnUse">
                                <stop stop-color="#619FBB" />
                                <stop offset="1" stop-color="#B4E0F4" />
                            </linearGradient>
                            <clipPath id="clip0_111_340">
                                <rect width="80" height="78" fill="white" />
                            </clipPath>
                        </defs>
                    </svg>