<svg width="623" height="143" viewBox="0 0 623 143" fill="none" xmlns="http://www.w3.org/2000/svg">
<mask id="mask0_136_392" style="mask-type:alpha" maskUnits="userSpaceOnUse" x="0" y="0" width="623" height="147">
<path d="M0 145V143H2.59743C6.19386 143 9.1909 142.467 11.5885 141.4C14.1193 140.333 15.9842 138.733 17.183 136.6C18.3818 134.467 18.9812 131.8 18.9812 128.6V17.8C18.9812 14.7333 18.3818 12.2 17.183 10.2C15.9842 8.2 14.1193 6.73333 11.5885 5.8C9.1909 4.73333 6.19386 4.19999 2.59743 4.19999H0V2.19999H100.7L101.899 37.2H99.901L99.5014 30.6C99.1018 23.9333 97.9696 18.6667 96.1048 14.8C94.24 10.9333 91.3095 8.2 87.3135 6.6C83.3175 5 77.9228 4.19999 71.1295 4.19999H39.1612V73.8H89.3115V75.8H39.1612V128.6C39.1612 131.8 39.7606 134.467 40.9594 136.6C42.1582 138.733 43.9565 140.333 46.3541 141.4C48.8849 142.467 51.9485 143 55.545 143H58.1424V145H0Z" fill="white"/>
<path d="M184.386 147C170.267 147 158.545 143.933 149.221 137.8C139.897 131.667 132.904 123.067 128.242 112C123.713 100.933 121.448 88 121.448 73.2C121.448 58.4 123.713 45.5333 128.242 34.6C132.904 23.6667 139.897 15.2 149.221 9.2C158.678 3.06667 170.467 0 184.586 0C198.039 0 209.361 3.06667 218.552 9.2C227.876 15.2 234.936 23.7333 239.731 34.8C244.66 45.7333 247.124 58.6 247.124 73.4C247.124 88.2 244.66 101.133 239.731 112.2C234.936 123.133 227.876 131.667 218.552 137.8C209.228 143.933 197.839 147 184.386 147ZM184.386 145C191.446 145 197.506 143.667 202.568 141C207.763 138.2 211.959 133.933 215.156 128.2C218.486 122.333 220.95 114.867 222.548 105.8C224.147 96.7333 224.946 85.9333 224.946 73.4C224.946 60.8667 224.147 50.1333 222.548 41.2C220.95 32.1333 218.486 24.7333 215.156 19C211.959 13.1333 207.83 8.86666 202.768 6.2C197.706 3.4 191.646 2 184.586 2C177.393 2 171.199 3.4 166.004 6.2C160.943 8.86666 156.747 13.1333 153.417 19C150.087 24.7333 147.623 32.1333 146.024 41.2C144.426 50.1333 143.626 60.8667 143.626 73.4C143.626 85.9333 144.426 96.7333 146.024 105.8C147.623 114.867 150.02 122.333 153.217 128.2C156.547 133.933 160.743 138.2 165.804 141C170.999 143.667 177.193 145 184.386 145Z" fill="white"/>
<path d="M331.877 147C318.158 147 306.702 143.933 297.512 137.8C288.321 131.667 281.394 123.133 276.732 112.2C272.203 101.267 269.939 88.5333 269.939 74C269.939 59.3333 272.27 46.4667 276.932 35.4C281.594 24.3333 288.654 15.7333 298.111 9.59999C307.701 3.33333 319.756 0.199997 334.275 0.199997C342.933 0.199997 350.193 1.26666 356.054 3.4C362.048 5.53333 366.576 8.33333 369.64 11.8C372.837 15.2667 374.435 19.0667 374.435 23.2C374.435 27.7333 372.77 31.1333 369.44 33.4C366.11 35.5333 361.981 36.6 357.053 36.6C357.053 28.3333 356.187 21.7333 354.455 16.8C352.723 11.7333 349.993 8.06666 346.263 5.8C342.534 3.53333 337.672 2.39999 331.678 2.39999C322.354 2.39999 314.761 5.06666 308.9 10.4C303.039 15.7333 298.777 23.6667 296.113 34.2C293.449 44.6 292.117 57.5333 292.117 73C292.117 89 293.515 102.333 296.313 113C299.243 123.667 303.772 131.667 309.899 137C316.16 142.333 324.285 145 334.275 145C340.269 145 345.464 144 349.86 142C354.388 140 358.185 136.867 361.248 132.6C364.312 128.2 366.776 122.6 368.641 115.8C370.373 116.467 371.638 117.467 372.437 118.8C373.236 120 373.636 121.533 373.636 123.4C373.636 125.933 372.77 128.6 371.039 131.4C369.307 134.067 366.71 136.6 363.246 139C359.783 141.4 355.454 143.333 350.259 144.8C345.064 146.267 338.937 147 331.877 147Z" fill="white"/>
<path d="M453.608 147C443.086 147 434.028 145.533 426.435 142.6C418.976 139.533 413.248 134.667 409.252 128C405.256 121.333 403.258 112.6 403.258 101.8V17.8C403.258 14.7333 402.659 12.2 401.46 10.2C400.261 8.2 398.396 6.73333 395.866 5.8C393.468 4.73333 390.471 4.19999 386.875 4.19999H384.277V2.19999H442.42V4.19999H439.822C436.226 4.19999 433.162 4.73333 430.631 5.8C428.234 6.86666 426.435 8.46667 425.237 10.6C424.038 12.6 423.438 15.2 423.438 18.4V103C423.438 113.667 424.837 122 427.634 128C430.565 134 434.561 138.2 439.622 140.6C444.684 142.867 450.412 144 456.805 144C465.863 144 473.655 142.4 480.182 139.2C486.709 136 491.704 131.4 495.167 125.4C498.764 119.267 500.562 112.067 500.562 103.8V17.8C500.562 14.7333 499.963 12.2 498.764 10.2C497.565 8.2 495.7 6.73333 493.169 5.8C490.772 4.73333 487.775 4.19999 484.178 4.19999H481.581V2.19999H521.541V4.19999H518.944C515.347 4.19999 512.284 4.73333 509.753 5.8C507.355 6.86666 505.557 8.46667 504.358 10.6C503.159 12.7333 502.56 15.4 502.56 18.6V104.2C502.56 113 500.695 120.6 496.966 127C493.236 133.4 487.708 138.333 480.382 141.8C473.189 145.267 464.265 147 453.608 147Z" fill="white"/>
<path d="M576.047 147C569.52 147 563.659 146.333 558.464 145C553.269 143.533 548.807 141.6 545.077 139.2C541.481 136.667 538.75 133.733 536.885 130.4C535.021 127.067 534.088 123.4 534.088 119.4C534.088 116.333 534.621 113.8 535.687 111.8C536.885 109.667 538.55 108.067 540.682 107C542.813 105.933 545.41 105.4 548.474 105.4C548.607 114.067 549.673 121.4 551.671 127.4C553.802 133.267 556.999 137.667 561.261 140.6C565.524 143.533 570.918 145 577.445 145C585.97 145 592.83 142.533 598.025 137.6C603.353 132.533 606.017 125.133 606.017 115.4C606.017 109.4 604.885 104.533 602.62 100.8C600.489 97.0667 596.959 93.7333 592.031 90.8C587.235 87.7333 580.908 84.4 573.049 80.8C568.92 78.8 564.658 76.6667 560.262 74.4C556 72 552.004 69.2 548.274 66C544.678 62.6667 541.747 58.6667 539.483 54C537.352 49.2 536.286 43.5333 536.286 37C536.286 29 538.018 22.2667 541.481 16.8C544.944 11.3333 549.806 7.2 556.066 4.4C562.46 1.6 569.919 0.199997 578.444 0.199997C586.303 0.199997 593.096 1.26666 598.824 3.4C604.685 5.53333 609.214 8.33333 612.411 11.8C615.741 15.2667 617.406 19.0667 617.406 23.2C617.406 27.0667 615.94 30.1333 613.01 32.4C610.079 34.5333 606.283 35.6 601.621 35.6C601.621 28.2667 600.822 22.1333 599.224 17.2C597.758 12.2667 595.294 8.53332 591.831 5.99999C588.368 3.46666 583.839 2.19999 578.244 2.19999C573.183 2.19999 568.72 3.26666 564.858 5.4C560.995 7.4 557.998 10.4667 555.867 14.6C553.869 18.6 552.87 23.6667 552.87 29.8C552.87 36.3333 554.068 41.6 556.466 45.6C558.864 49.6 562.46 53.0667 567.255 56C572.184 58.8 578.311 61.9333 585.637 65.4C592.297 68.4667 598.424 71.6667 604.019 75C609.747 78.3333 614.342 82.5333 617.805 87.6C621.268 92.6667 623 99.3333 623 107.6C623 115.733 621.135 122.733 617.406 128.6C613.809 134.467 608.481 139 601.421 142.2C594.495 145.4 586.037 147 576.047 147Z" fill="white"/>
</mask>
<g mask="url(#mask0_136_392)">
<rect y="-1" width="623" height="144" fill="white"/>
</g>
</svg>
