<svg width="111" height="363" viewBox="0 0 111 363" fill="none" xmlns="http://www.w3.org/2000/svg">
<path d="M111 331.045C111 336.016 110.496 340.479 109.488 344.436C108.379 348.392 106.917 351.79 105.102 354.631C103.187 357.37 100.969 359.449 98.4482 360.87C95.9278 362.29 93.1553 363 90.1308 363C87.812 363 85.8965 362.594 84.3842 361.783C82.7711 360.87 81.5613 359.602 80.7548 357.978C79.9482 356.355 79.5449 354.377 79.5449 352.044C86.0981 351.943 91.643 351.131 96.1798 349.609C100.616 347.986 103.943 345.552 106.161 342.305C108.379 339.059 109.488 334.951 109.488 329.98C109.488 323.487 107.623 318.263 103.892 314.307C100.061 310.249 94.4659 308.22 87.1063 308.22C82.5695 308.22 78.8896 309.082 76.0668 310.807C73.2439 312.43 70.7234 315.118 68.5054 318.872C66.1866 322.524 63.6662 327.342 60.9441 333.327C59.4319 336.472 57.8188 339.718 56.1049 343.066C54.2902 346.312 52.173 349.356 49.7534 352.196C47.233 354.935 44.2084 357.167 40.6798 358.891C37.0504 360.515 32.7657 361.326 27.8256 361.326C21.7766 361.326 16.6853 360.007 12.5518 357.37C8.41826 354.732 5.29292 351.03 3.17575 346.262C1.05858 341.392 3.25413e-07 335.711 4.02835e-07 329.219C4.74208e-07 323.234 0.80654 318.06 2.41962 313.698C4.0327 309.234 6.14986 305.785 8.77112 303.351C11.3924 300.814 14.2657 299.546 17.391 299.546C20.3147 299.546 22.6335 300.662 24.3474 302.894C25.9605 305.126 26.767 308.017 26.767 311.568C21.2221 311.568 16.5845 312.176 12.8542 313.394C9.12397 314.509 6.30109 316.386 4.38556 319.024C2.47002 321.661 1.51226 325.11 1.51226 329.371C1.51226 333.226 2.3188 336.624 3.93188 339.566C5.44414 342.508 7.76294 344.791 10.8883 346.414C13.9128 347.935 17.7439 348.696 22.3815 348.696C27.3215 348.696 31.3038 347.783 34.3283 345.957C37.3529 344.131 39.9741 341.392 42.1921 337.74C44.3093 333.987 46.6785 329.32 49.2997 323.741C51.6185 318.669 54.0381 314.002 56.5586 309.742C59.079 305.379 62.2548 301.88 66.0858 299.242C69.9169 296.605 74.9578 295.286 81.2084 295.286C87.3583 295.286 92.6512 296.706 97.0872 299.546C101.523 302.285 104.951 306.343 107.371 311.72C109.79 316.995 111 323.437 111 331.045Z" fill="#B4E0F4"/>
<path d="M109.488 290.506L107.975 290.506L107.975 286.093C107.975 283.861 107.623 281.984 106.917 280.463C106.211 278.941 105.001 277.622 103.287 276.506C101.574 275.39 99.2043 274.325 96.1798 273.311L1.51226 240.138L1.51226 232.378L99.9605 194.184C101.977 193.372 103.59 192.561 104.8 191.749C105.909 190.938 106.715 190.025 107.219 189.01C107.723 187.894 107.975 186.626 107.975 185.206L107.975 183.228L109.488 183.228L109.488 225.074L107.975 225.074L107.975 221.574C107.975 217.719 107.522 214.929 106.614 213.205C105.707 211.48 104.094 210.618 101.775 210.618C101.17 210.618 100.565 210.669 99.9605 210.77C99.2548 210.872 98.4986 211.024 97.6921 211.227C96.8855 211.328 96.0286 211.582 95.1212 211.987L70.3202 221.27L70.3202 262.507L94.0627 270.876C94.8692 271.18 95.6757 271.434 96.4823 271.637C97.2888 271.84 98.045 271.992 98.7507 272.093C99.3556 272.195 99.9605 272.246 100.565 272.246C103.287 272.246 105.203 271.028 106.312 268.594C107.421 266.159 107.975 262.253 107.975 256.877L107.975 253.377L109.488 253.377L109.488 290.506ZM68.8079 262.05L68.8079 221.878L39.3188 232.986C35.891 234.305 32.6144 235.523 29.4891 236.638C26.3638 237.754 23.3897 238.82 20.5668 239.834C17.6431 240.747 14.8202 241.609 12.0981 242.421C14.3161 243.131 16.3828 243.79 18.2984 244.399C20.1131 245.008 21.9278 245.616 23.7425 246.225C25.5572 246.834 27.5232 247.544 29.6403 248.355C31.6567 249.065 34.0259 249.877 36.748 250.79L68.8079 262.05Z" fill="#B4E0F4"/>
<path d="M109.488 177.434L107.975 177.434L107.975 175.456C107.975 172.717 107.572 170.434 106.766 168.608C105.959 166.681 104.749 165.26 103.136 164.347C101.523 163.434 99.5068 162.978 97.0872 162.978L13.3079 162.978C10.9891 162.978 9.07357 163.434 7.56131 164.347C6.04905 165.26 4.94006 166.681 4.23433 168.608C3.42779 170.434 3.02452 172.717 3.02452 175.456L3.02452 177.434L1.51226 177.434L1.51226 133.153L3.02452 133.153L3.02452 135.131C3.02452 137.87 3.42779 140.204 4.23433 142.131C5.04087 143.957 6.25068 145.326 7.86376 146.239C9.47684 147.152 11.4932 147.609 13.9128 147.609L107.975 147.609L107.975 119.458C107.975 114.082 107.219 109.821 105.707 106.676C104.094 103.43 101.372 101.046 97.5409 99.5243C93.7098 98.0026 88.5177 97.0389 81.9646 96.6331L76.9741 96.3287L76.9741 94.8071L109.488 95.8723L109.488 177.434Z" fill="#B4E0F4"/>
<path d="M109.488 82.6266L107.975 82.6266L107.975 80.6484C107.975 77.9094 107.572 75.6269 106.766 73.8009C105.959 71.8735 104.749 70.4533 103.136 69.5403C101.523 68.6273 99.5068 68.1707 97.0872 68.1707L13.3079 68.1707C10.9891 68.1707 9.07357 68.6273 7.56131 69.5403C6.04905 70.4533 4.94006 71.8735 4.23433 73.8009C3.42779 75.6269 3.02452 77.9094 3.02452 80.6484L3.02452 82.6266L1.51226 82.6266L1.51226 6.08667L27.9768 5.17365L27.9768 6.69534L22.9864 6.99966C17.9455 7.304 13.9632 8.16629 11.0395 9.58652C8.11581 11.0067 6.04905 13.2385 4.83924 16.2818C3.62943 19.2237 3.02452 23.2815 3.02452 28.4552L3.02452 52.8019L52.173 52.8019L52.173 14.608L53.6853 14.608L53.6853 52.8019L107.975 52.8019L107.975 24.651C107.975 19.173 107.371 14.8109 106.161 11.5647C104.951 8.31844 102.884 5.98523 99.9605 4.565C97.0368 3.04333 93.0545 2.13035 88.0136 1.82602L83.0232 1.52167L83.0232 9.90041e-07L109.488 1.06519L109.488 82.6266Z" fill="#B4E0F4"/>
</svg>
